<svg width="541" height="383" viewBox="0 0 541 383" fill="none" xmlns="http://www.w3.org/2000/svg">
<path d="M0 349.5C0 330.998 14.9985 316 33.5 316H507.5C526.002 316 541 330.998 541 349.5V349.5C541 368.002 526.002 383 507.5 383H33.5C14.9985 383 0 368.002 0 349.5V349.5Z" fill="black"/>
<path d="M0 191.5C0 172.998 14.9985 158 33.5 158H507.5C526.002 158 541 172.998 541 191.5V191.5C541 210.002 526.002 225 507.5 225H33.5C14.9985 225 0 210.002 0 191.5V191.5Z" fill="black"/>
<path d="M0 33.5C0 14.9985 14.9985 0 33.5 0H507.5C526.002 0 541 14.9985 541 33.5V33.5C541 52.0015 526.002 67 507.5 67H33.5C14.9985 67 0 52.0015 0 33.5V33.5Z" fill="black"/>
</svg>
