<svg width="383" height="541" viewBox="0 0 383 541" fill="none" xmlns="http://www.w3.org/2000/svg">
<path d="M349.5 541C330.998 541 316 526.002 316 507.5V33.5C316 14.9985 330.998 7.62939e-06 349.5 7.62939e-06V7.62939e-06C368.002 7.62939e-06 383 14.9985 383 33.5V507.5C383 526.002 368.002 541 349.5 541V541Z" fill="black"/>
<path d="M191.5 541C172.998 541 158 526.002 158 507.5V33.5C158 14.9985 172.998 7.62939e-06 191.5 7.62939e-06V7.62939e-06C210.002 7.62939e-06 225 14.9985 225 33.5V507.5C225 526.002 210.002 541 191.5 541V541Z" fill="black"/>
<path d="M33.5 541C14.9985 541 3.05176e-05 526.002 3.05176e-05 507.5L3.05176e-05 33.5C3.05176e-05 14.9985 14.9985 7.62939e-06 33.5 7.62939e-06V7.62939e-06C52.0016 7.62939e-06 67 14.9985 67 33.5L67 507.5C67 526.002 52.0016 541 33.5 541V541Z" fill="black"/>
</svg>
