<svg width="769" height="584" viewBox="0 0 769 584" fill="none" xmlns="http://www.w3.org/2000/svg">
<g clip-path="url(#clip0)">
<path d="M398.256 198.03C400.215 195.858 402.022 193.552 403.662 191.131L369.323 183.119L406.857 185.909C410.984 178.329 413.519 169.988 414.305 161.397C415.091 152.806 414.111 144.145 411.427 135.945L359.294 158.654L408.046 127.682C404.197 119.885 398.781 112.962 392.134 107.345C385.487 101.728 377.752 97.5368 369.411 95.0327C361.07 92.5285 352.301 91.7651 343.651 92.7898C335.002 93.8146 326.656 96.6056 319.134 100.989C311.613 105.372 305.077 111.254 299.933 118.268C294.788 125.282 291.147 133.278 289.235 141.758C287.323 150.237 287.181 159.019 288.819 167.555C290.456 176.092 293.838 184.2 298.753 191.376C295.699 194.757 293.019 198.457 290.76 202.411L334.262 228.791L287.284 209.482C283.241 219.21 281.693 229.791 282.779 240.266C283.866 250.741 287.553 260.781 293.507 269.476C286.206 277.562 281.117 287.389 278.732 298.009C276.346 308.629 276.745 319.683 279.889 330.104C283.033 340.525 288.816 349.962 296.681 357.503C304.545 365.044 314.225 370.435 324.786 373.155C323.791 375.454 323.2 377.907 323.041 380.406C322.756 384.102 323.464 387.807 325.091 391.139C323.066 394.241 321.872 397.81 321.624 401.504C321.376 405.197 322.082 408.893 323.674 412.237C321.649 415.338 320.455 418.907 320.207 422.601C319.959 426.294 320.665 429.99 322.257 433.334C320.232 436.436 319.038 440.004 318.79 443.698C318.542 447.391 319.248 451.087 320.84 454.431C318.781 457.517 317.585 461.094 317.373 464.795C316.733 474.328 322.13 482.452 329.428 482.94C336.726 483.428 343.161 476.095 343.802 466.562C344.087 462.866 343.379 459.162 341.752 455.829C343.777 452.727 344.971 449.159 345.219 445.465C345.467 441.771 344.761 438.076 343.169 434.732C345.194 431.63 346.388 428.062 346.636 424.368C346.884 420.674 346.178 416.979 344.586 413.635C346.611 410.533 347.805 406.965 348.053 403.271C348.301 399.577 347.595 395.882 346.003 392.538C348.062 389.452 349.258 385.875 349.47 382.174C349.65 379.64 349.383 377.094 348.683 374.651C359.456 373.275 369.695 369.163 378.419 362.707C387.143 356.252 394.061 347.67 398.509 337.783C402.957 327.896 404.788 317.036 403.825 306.241C402.862 295.446 399.138 285.078 393.01 276.131C402.533 265.585 408.227 252.151 409.179 237.987C410.13 223.823 406.283 209.75 398.256 198.03V198.03Z" fill="#F2F2F2"/>
<path d="M452 476.809C452 486.116 393.356 518 323.492 518C253.628 518 199 486.116 199 476.809C199 467.503 253.628 484.299 323.492 484.299C393.356 484.299 452 467.503 452 476.809Z" fill="#3F3D56"/>
<path opacity="0.1" d="M452 476.809C452 486.116 393.356 518 323.492 518C253.628 518 199 486.116 199 476.809C199 467.503 253.628 484.299 323.492 484.299C393.356 484.299 452 467.503 452 476.809Z" fill="black"/>
<path d="M325.5 494C395.364 494 452 486.389 452 477C452 467.611 395.364 460 325.5 460C255.636 460 199 467.611 199 477C199 486.389 255.636 494 325.5 494Z" fill="#3F3D56"/>
<path opacity="0.1" d="M328.644 493.115C355.294 493.115 376.898 486.956 376.898 479.358C376.898 471.76 355.294 465.601 328.644 465.601C301.994 465.601 280.39 471.76 280.39 479.358C280.39 486.956 301.994 493.115 328.644 493.115Z" fill="black"/>
<path d="M339.231 388.001C341.078 384.785 342.032 381.136 341.995 377.429C341.995 367.875 336.066 360.129 328.751 360.129C321.437 360.129 315.507 367.875 315.507 377.429C315.471 381.136 316.425 384.785 318.272 388.001C316.459 391.232 315.507 394.872 315.507 398.574C315.507 402.276 316.459 405.916 318.272 409.146C316.459 412.376 315.507 416.016 315.507 419.718C315.507 423.42 316.459 427.06 318.272 430.29C316.459 433.52 315.507 437.16 315.507 440.862C315.507 444.564 316.459 448.205 318.272 451.435C316.425 454.651 315.471 458.3 315.507 462.007C315.507 471.561 321.437 479.307 328.751 479.307C336.066 479.307 341.995 471.561 341.995 462.007C342.032 458.3 341.078 454.651 339.231 451.435C341.044 448.205 341.995 444.564 341.995 440.862C341.995 437.16 341.044 433.52 339.231 430.29C341.044 427.06 341.995 423.42 341.995 419.718C341.995 416.016 341.044 412.376 339.231 409.146C341.044 405.916 341.995 402.276 341.995 398.574C341.995 394.872 341.044 391.232 339.231 388.001V388.001Z" fill="#3F3D56"/>
<path d="M328.751 373.585C336.066 373.585 341.995 365.839 341.995 356.285C341.995 346.73 336.066 338.985 328.751 338.985C321.437 338.985 315.507 346.73 315.507 356.285C315.507 365.839 321.437 373.585 328.751 373.585Z" fill="#3F3D56"/>
<path d="M328.751 352.44C336.066 352.44 341.995 344.695 341.995 335.14C341.995 325.586 336.066 317.84 328.751 317.84C321.437 317.84 315.507 325.586 315.507 335.14C315.507 344.695 321.437 352.44 328.751 352.44Z" fill="#3F3D56"/>
<path d="M378.331 190.442C380.14 188.144 381.788 185.723 383.263 183.198L348.463 177.495L386.1 177.774C389.711 169.936 391.68 161.445 391.889 152.82C392.097 144.196 390.539 135.62 387.312 127.617L336.817 153.754L383.385 119.598C379.022 112.075 373.153 105.53 366.145 100.369C359.136 95.2078 351.138 91.5423 342.647 89.6003C334.157 87.6584 325.357 87.4818 316.796 89.0814C308.234 90.6811 300.094 94.0227 292.883 98.8982C285.672 103.774 279.545 110.079 274.882 117.42C270.22 124.762 267.122 132.982 265.783 141.57C264.443 150.158 264.89 158.93 267.096 167.338C269.302 175.746 273.219 183.611 278.604 190.442C275.784 194.02 273.358 197.89 271.369 201.987L316.542 225.404L268.375 209.274C264.993 219.25 264.157 229.91 265.944 240.289C267.73 250.668 272.081 260.439 278.604 268.718C271.244 278.055 266.665 289.271 265.392 301.082C264.118 312.893 266.202 324.824 271.403 335.51C276.605 346.195 284.715 355.205 294.806 361.508C304.897 367.812 316.562 371.154 328.468 371.154C340.373 371.154 352.038 367.812 362.129 361.508C372.22 355.205 380.33 346.195 385.532 335.51C390.733 324.824 392.817 312.893 391.543 301.082C390.27 289.271 385.691 278.055 378.331 268.718C387.126 257.56 391.907 243.776 391.907 229.58C391.907 215.385 387.126 201.601 378.331 190.442V190.442Z" fill="#00F5DF"/>
<path opacity="0.1" d="M265.028 229.58C265.006 243.78 269.79 257.571 278.604 268.718C271.244 278.055 266.665 289.271 265.392 301.082C264.118 312.893 266.202 324.824 271.403 335.51C276.605 346.195 284.715 355.205 294.806 361.508C304.897 367.812 316.562 371.154 328.467 371.154C340.373 371.154 352.038 367.812 362.129 361.508C372.22 355.205 380.33 346.195 385.532 335.51C390.733 324.824 392.817 312.893 391.543 301.082C390.27 289.271 385.691 278.055 378.331 268.718C386.833 257.947 265.028 222.476 265.028 229.58Z" fill="black"/>
<path d="M151.647 505.722L165.936 493.008C137.57 487.742 109.101 512.642 101.672 548.893C101.425 548.941 101.18 549.002 100.939 549.075L84.8268 496.344C83.6404 502.616 83.1135 508.994 83.2547 515.375L70.689 491.027C65.6109 518.263 77.702 543.57 98.0004 549.636C96.3054 549.638 94.6124 549.517 92.9352 549.273C92.858 549.261 92.8047 549.253 92.8047 549.253C92.6748 550.597 92.7134 551.952 92.9196 553.287C93.0081 554.034 93.3281 554.736 93.8349 555.293C94.455 555.848 96.2024 556.614 98.4925 557.405C98.6687 557.465 98.8479 557.526 99.0303 557.587C100.489 558.076 102.136 558.568 103.836 559.021C105.96 559.587 108.167 560.092 110.189 560.451C110.409 560.49 110.61 560.514 110.8 560.53C110.862 560.535 110.915 560.534 110.974 560.536C111.097 560.542 111.217 560.546 111.327 560.541C111.388 560.539 111.443 560.532 111.5 560.527C111.593 560.518 111.685 560.506 111.776 560.488C111.827 560.477 111.876 560.465 111.923 560.452C112.001 560.431 112.077 560.404 112.151 560.372C112.19 560.355 112.23 560.339 112.266 560.32C112.334 560.283 112.399 560.24 112.46 560.191C112.485 560.172 112.513 560.155 112.536 560.134C112.606 560.07 112.669 559.998 112.722 559.92C112.727 559.913 112.735 559.907 112.74 559.899C112.8 559.806 112.849 559.707 112.886 559.603C112.888 559.596 112.889 559.588 112.892 559.581C112.926 559.481 112.951 559.377 112.967 559.272C112.969 559.265 112.971 559.259 112.972 559.252L112.969 559.256C113.339 556.825 109.926 551.681 109.882 550.225C109.84 548.832 106.416 548.458 103.619 548.646L156.196 506.296C154.692 506.018 153.173 505.826 151.647 505.722V505.722Z" fill="#F2F2F2"/>
<path d="M192.944 556.486C192.944 562.815 148.221 584.499 94.9407 584.499C41.6607 584.499 0 562.815 0 556.486C0 550.157 41.6607 561.58 94.9407 561.58C148.221 561.58 192.944 550.157 192.944 556.486Z" fill="#3F3D56"/>
<path opacity="0.1" d="M192.944 556.486C192.944 562.815 148.221 584.499 94.9407 584.499C41.6607 584.499 0 562.815 0 556.486C0 550.157 41.6607 561.58 94.9407 561.58C148.221 561.58 192.944 550.157 192.944 556.486Z" fill="black"/>
<path d="M96.472 567.946C149.752 567.946 192.944 562.815 192.944 556.486C192.944 550.157 149.752 545.027 96.472 545.027C43.192 545.027 0 550.157 0 556.486C0 562.815 43.192 567.946 96.472 567.946Z" fill="#3F3D56"/>
<path opacity="0.1" d="M96.4361 563.325C107.857 563.325 117.116 560.245 117.116 556.446C117.116 552.648 107.857 549.568 96.4361 549.568C85.0147 549.568 75.7558 552.648 75.7558 556.446C75.7558 560.245 85.0147 563.325 96.4361 563.325Z" fill="black"/>
<path d="M53.436 499.435C53.436 528.639 71.7972 552.271 94.4882 552.271Z" fill="#3F3D56"/>
<path d="M94.4882 552.271C94.4882 522.739 114.978 498.842 140.3 498.842Z" fill="#00F5DF"/>
<path d="M68.31 502.083C68.31 529.824 80.0186 552.271 94.4882 552.271Z" fill="#00F5DF"/>
<path d="M94.4882 552.271C94.4882 514.535 118.171 484 147.439 484Z" fill="#3F3D56"/>
<path d="M85.8519 552.644C85.8519 552.644 91.6738 552.465 93.4283 551.218C95.1829 549.971 102.384 548.483 102.819 550.482C103.254 552.482 111.568 560.426 104.995 560.479C98.4225 560.532 89.723 559.458 87.9718 558.393C86.2206 557.329 85.8519 552.644 85.8519 552.644Z" fill="#A8A8A8"/>
<path opacity="0.2" d="M105.113 559.783C98.5398 559.836 89.8403 558.762 88.0891 557.697C86.7555 556.887 86.224 553.978 86.0462 552.636C85.9231 552.641 85.8519 552.644 85.8519 552.644C85.8519 552.644 86.2206 557.329 87.9718 558.393C89.723 559.458 98.4225 560.532 104.995 560.479C106.893 560.464 107.548 559.79 107.512 558.793C107.249 559.395 106.525 559.772 105.113 559.783Z" fill="black"/>
<path d="M652.464 100.662L646.292 109.771C648.359 112.347 649.825 115.146 648.885 116.997C646.566 121.56 641.24 127.458 638.399 130.604C635.559 133.75 635.163 142.171 615.89 141.164C596.618 140.157 588.822 132.029 588.822 132.029C588.822 132.029 587.114 146.773 578.92 152.05C579.615 152.944 580.546 153.654 581.624 154.111C590.282 157.877 599.731 187.961 606.28 204.487C613.425 222.515 602.567 219.374 602.567 219.374C598.93 219.43 595.588 219.609 592.521 219.88C588.953 228.683 583.295 247.505 589.931 266.891C594.572 280.449 593.596 294.738 591.521 305.501L595.854 309.819C600.684 311.255 602.117 314.058 602.117 314.058L613.235 328.485L611.393 329.727L604.728 321.143C604.728 321.143 603.275 322.354 601.278 326.162C599.281 329.969 604.96 344.832 605.06 345.919C605.161 347.005 600.002 354.713 592.787 357.116C592.294 357.29 591.767 357.364 591.241 357.334L591.902 364.482L587.983 364.431L586.779 351.397C586.779 351.397 583.755 369.512 583.146 371.385C582.536 373.257 576.252 373.032 569.681 373.924C563.109 374.816 556.579 367.68 563.271 363.861C569.964 360.041 570.803 347.938 570.803 347.938C567.635 339.073 574.791 327.557 574.791 327.557L575.609 319.467C575.765 319.795 575.998 320.086 576.29 320.319C576.583 320.552 576.928 320.722 577.299 320.815L576.321 310.229C568.853 302.224 559.091 291.539 554.036 285.089C545.162 273.765 545.638 270.444 545.638 270.444L536.54 232.85C533.519 233.064 530.483 233.011 527.472 232.693C521.315 231.828 523.612 212.98 527.173 197.784C526.239 194.184 524.761 189.229 522.435 182.418C521.318 179.138 520.582 175.756 520.24 172.33C518.833 158.46 523.975 146.862 526.21 142.579L525.437 140.761C525.437 140.761 518.326 133.526 523.891 121.281C523.572 119.987 523.352 118.673 523.232 117.349C522.733 111.499 524.122 105.644 527.22 100.534C527.258 100.475 527.295 100.414 527.334 100.361L527.374 100.302L527.385 100.302C527.436 100.233 527.492 100.168 527.552 100.106C529.812 97.961 541.34 93.9001 543.688 93.0874C543.817 93.0125 543.961 92.9628 544.112 92.9415C544.976 92.8722 544.067 89.3367 543.091 86.2108C541.876 85.3315 540.799 84.2977 539.893 83.1398C535.056 81.3019 530.792 78.3614 527.492 74.5882C524.193 70.815 521.963 66.3299 521.008 61.5446C520.053 56.7593 520.403 51.8271 522.026 47.2006C523.649 42.5742 526.493 38.4017 530.297 35.0662C528.955 33.3203 528.024 31.3302 527.564 29.2261C527.103 27.122 527.124 24.951 527.626 22.855C528.127 20.759 529.097 18.7852 530.473 17.0623C531.848 15.3394 533.598 13.9063 535.609 12.8565C532.459 15.2888 530.4 18.7311 529.836 22.5065C529.272 26.2819 530.244 30.1173 532.561 33.2588C532.91 33.0056 533.266 32.759 533.627 32.5189C532.759 30.3163 532.449 27.9571 532.719 25.6245C532.989 23.292 533.833 21.0488 535.184 19.0694C536.536 17.09 538.359 15.4275 540.512 14.2112C542.665 12.9949 545.09 12.2575 547.598 12.0563C550.107 11.855 552.631 12.1954 554.976 13.0509C557.32 13.9064 559.421 15.254 561.116 16.989C562.811 18.7241 564.053 20.7998 564.747 23.0551C565.441 25.3103 565.568 27.6842 565.118 29.9925C569.939 32.1361 574.089 35.3977 577.169 39.4646C580.25 43.5316 582.157 48.2677 582.71 53.2189C583.262 58.1701 582.44 63.1705 580.323 67.7409C578.206 72.3113 574.865 76.2984 570.62 79.3201C573.74 80.6754 577.161 81.3207 580.602 81.2028C584.042 81.085 587.403 80.2073 590.408 78.6421C587.263 81.0675 583.448 82.6187 579.4 83.1182C575.353 83.6177 571.236 83.0454 567.521 81.4667C566.131 83.8381 564.093 85.8248 561.613 87.2255C561.876 87.9199 562.228 88.5819 562.663 89.1968L563.659 88.4554L567.98 92.8504L579.126 94.874C579.126 94.874 586.254 95.7612 594.372 103.134C602.49 110.507 616.135 114.154 616.135 114.154L626.846 111.471C626.846 111.471 639.166 105.011 639.032 103.563C639.011 103.333 639.307 103.403 639.807 103.698L645.833 92.4403C645.833 92.4403 657.124 66.3679 664.364 72.7169C671.605 79.066 652.464 100.662 652.464 100.662ZM572.926 273.477L572.647 270.466C568.994 265.658 566.945 253.801 565.801 242.811L567.463 269.423C569.533 270.453 571.385 271.827 572.926 273.477V273.477ZM587.834 329.773L587.893 333.801C589.073 335.771 589.96 337.881 590.528 340.074C590.869 338.15 589.445 333.827 587.834 329.773Z" fill="#F2F2F2"/>
<path d="M424 367.64C424 379.695 499.565 421 589.587 421C679.61 421 750 379.695 750 367.64C750 355.584 679.61 377.341 589.587 377.341C499.565 377.341 424 355.584 424 367.64Z" fill="#3F3D56"/>
<path opacity="0.1" d="M419 380.64C419 392.695 494.565 434 584.587 434C674.61 434 745 392.695 745 380.64C745 368.584 674.61 390.341 584.587 390.341C494.565 390.341 419 368.584 419 380.64Z" fill="black"/>
<path d="M587 388C496.978 388 424 378.15 424 366C424 353.85 496.978 344 587 344C677.022 344 750 353.85 750 366C750 378.15 677.022 388 587 388Z" fill="#3F3D56"/>
<path opacity="0.1" d="M586 377C550.101 377 521 370.956 521 363.5C521 356.044 550.101 350 586 350C621.899 350 651 356.044 651 363.5C651 370.956 621.899 377 586 377Z" fill="black"/>
<path d="M591.973 78.0158C589.25 76.0666 587.056 73.5379 585.57 70.6367C584.084 67.7355 583.349 64.5441 583.424 61.3237C583.499 58.1032 584.382 54.9452 586.001 52.108C587.62 49.2709 589.93 46.8351 592.74 45C589.997 46.1679 587.543 47.8615 585.533 49.9728C583.524 52.0841 582.003 54.5666 581.069 57.2622C580.135 59.9578 579.808 62.8071 580.108 65.6285C580.408 68.4499 581.329 71.1815 582.812 73.6489C584.295 76.1163 586.308 78.2655 588.722 79.9593C591.137 81.6531 593.899 82.8544 596.833 83.4865C599.768 84.1186 602.81 84.1677 605.766 83.6306C608.721 83.0935 611.526 81.9821 614 80.3672C610.444 81.881 606.52 82.4617 602.643 82.0478C598.765 81.6339 595.079 80.2408 591.973 78.0158V78.0158Z" fill="#2F2E41"/>
<path d="M553.784 97H550.165C547.491 100.43 545.675 104.34 544.842 108.462C544.009 112.584 544.179 116.82 545.341 120.877C549.361 134.625 546.145 137.157 546.145 137.157C546.145 137.157 531.671 155.607 537.3 178.038C542.928 200.468 541.32 203 541.32 203L551.371 184.911L557 137.157L553.784 97Z" fill="#00F5DF"/>
<path opacity="0.1" d="M553.784 97H550.165C547.491 100.43 545.675 104.34 544.842 108.462C544.009 112.584 544.179 116.82 545.341 120.877C549.361 134.625 546.145 137.157 546.145 137.157C546.145 137.157 531.671 155.608 537.3 178.038C542.928 200.468 541.32 203 541.32 203L551.371 184.911L557 137.157L553.784 97Z" fill="black"/>
<path d="M578 84C560.879 84 547 70.7924 547 54.5C547 38.2076 560.879 25 578 25C595.121 25 609 38.2076 609 54.5C609 70.7924 595.121 84 578 84Z" fill="#2F2E41"/>
<path d="M565.846 79.06C565.846 79.06 568.923 90.8155 567.385 90.8155C565.846 90.8155 560.462 97.0605 560.462 97.0605L557 109.183L559.692 118L568.923 116.163L580.462 104.04L583.923 100.734L587 90.0807C587 90.0807 583.154 85.6724 585.846 81.9989C588.538 78.3253 565.846 79.06 565.846 79.06Z" fill="#FBBEBE"/>
<path opacity="0.1" d="M565.846 79.06C565.846 79.06 568.923 90.8155 567.385 90.8155C565.846 90.8155 560.462 97.0605 560.462 97.0605L557 109.183L559.692 118L568.923 116.163L580.462 104.04L583.923 100.734L587 90.0807C587 90.0807 583.154 85.6724 585.846 81.9989C588.538 78.3253 565.846 79.06 565.846 79.06Z" fill="black"/>
<path d="M659 111.814L667.57 98.7136C667.57 98.7136 676.821 79.5929 683.444 86.5069C690.066 93.4209 673.413 107.447 673.413 107.447L664.843 118L659 111.814Z" fill="#FBBEBE"/>
<path d="M546 225.17L552.194 268.083C552.194 268.083 551.419 271.384 559.161 283.488C566.903 295.592 587.806 322 587.806 322L594 310.997C594 310.997 586.645 276.152 573.871 268.817L575.419 216L546 225.17Z" fill="#FBBEBE"/>
<path opacity="0.1" d="M546 225.17L552.194 268.083C552.194 268.083 551.419 271.384 559.161 283.488C566.903 295.592 587.806 322 587.806 322L594 310.997C594 310.997 586.645 276.152 573.871 268.817L575.419 216L546 225.17Z" fill="black"/>
<path d="M594.438 306L586 321.232C586 321.232 592.904 339.727 590.219 341.54C587.534 343.353 584.082 359.673 591.37 357.86C598.658 356.046 604.411 348.793 604.411 347.705C604.411 346.617 600.192 331.386 602.493 327.759C604.795 324.133 606.329 323.045 606.329 323.045L612.082 332.111L614 331.023L604.411 315.792C604.411 315.792 603.26 312.89 598.658 311.077L594.438 306Z" fill="#2F2E41"/>
<path opacity="0.1" d="M594.438 306L586 321.232C586 321.232 592.904 339.727 590.219 341.54C587.534 343.353 584.082 359.673 591.37 357.86C598.658 356.046 604.411 348.793 604.411 347.705C604.411 346.617 600.192 331.386 602.493 327.759C604.795 324.133 606.329 323.045 606.329 323.045L612.082 332.111L614 331.023L604.411 315.792C604.411 315.792 603.26 312.89 598.658 311.077L594.438 306Z" fill="black"/>
<path d="M575.678 219.075C575.678 219.075 572.705 259.566 579.211 270.183V322.902L588.013 324C588.013 324 602.938 295.444 596.433 267.986C589.927 240.529 606 216 606 216L575.678 219.075Z" fill="#FBBEBE"/>
<path d="M578 88C569.163 88 562 81.0604 562 72.5C562 63.9396 569.163 57 578 57C586.837 57 594 63.9396 594 72.5C594 81.0604 586.837 88 578 88Z" fill="#FBBEBE"/>
<path d="M561.723 113.123L577.925 93.8257L587.184 88L591.041 92.7333L601.843 95.6462C601.843 95.6462 608.786 97.1026 616.116 105.113C623.445 113.123 636.561 117.856 636.561 117.856L647.363 116.036C647.363 116.036 660.093 110.574 660.093 109.118C660.093 107.662 671.28 118.949 668.579 123.318C665.879 127.687 660.093 133.149 657.007 136.062C653.92 138.974 652.763 147.349 633.861 144.8C614.959 142.251 608.015 133.513 608.015 133.513C608.015 133.513 604.543 150.262 594.513 153.538C584.483 156.815 551.694 159 551.694 159L544.75 137.154C544.75 137.154 537.035 127.687 547.45 113.851C547.45 113.851 547.65 106.113 548.77 100.964C549.205 98.9613 549.78 97.3502 550.536 96.7384C553.237 94.5538 567.51 90.9128 567.51 90.9128C567.51 90.9128 565.195 98.1948 564.038 98.559C562.881 98.9231 560.18 111.303 561.723 113.123Z" fill="#00F5DF"/>
<path d="M613.417 221.74C593.946 220.459 582.609 223.478 577.552 225.781C576.612 226.184 575.727 226.692 574.915 227.296C574.544 227.593 574.366 227.823 574.366 227.962C574.366 229.06 547.688 231.256 538.022 229.06C528.356 226.864 544.595 179.646 548.848 175.62C553.101 171.594 550.808 156.858 550.808 156.858C550.808 156.858 559.287 155.123 561.607 155.855C563.927 156.587 575.913 154.756 580.166 152.56C584.419 150.364 589.832 151.828 593.312 151.096C594.866 150.77 595.651 151.319 596.041 152.03C596.649 153.095 597.567 153.973 598.686 154.559C606.894 159.035 613.482 189.987 618.443 207.099C623.856 225.766 613.417 221.74 613.417 221.74Z" fill="#2F2E41"/>
<path d="M577.713 319L576.141 327.025C576.141 327.025 567.887 337.969 570.245 347.088C570.245 347.088 568.28 359.126 561.206 362.409C554.132 365.692 560.027 373.352 566.708 372.987C573.39 372.623 579.678 373.352 580.464 371.528C581.25 369.704 585.966 351.83 585.966 351.83V364.962L589.896 365.327V348.912C589.896 348.912 593.04 343.44 588.717 334.321L589.808 320.323C589.808 320.323 578.892 322.648 577.713 319Z" fill="#2F2E41"/>
<path d="M578 41C569.163 41 562 34.0604 562 25.5C562 16.9396 569.163 10 578 10C586.837 10 594 16.9396 594 25.5C594 34.0604 586.837 41 578 41Z" fill="#2F2E41"/>
<path d="M565.803 34.5503C563.801 33.1009 562.188 31.2206 561.096 29.0632C560.003 26.9059 559.462 24.5328 559.517 22.1381C559.572 19.7434 560.222 17.3952 561.412 15.2855C562.603 13.1758 564.301 11.3646 566.368 10C564.351 10.8685 562.546 12.1278 561.068 13.6977C559.591 15.2677 558.473 17.1137 557.786 19.1181C557.099 21.1225 556.859 23.2412 557.079 25.3392C557.3 27.4371 557.977 29.4683 559.068 31.303C560.158 33.1378 561.638 34.7359 563.414 35.9953C565.189 37.2548 567.22 38.1481 569.377 38.6181C571.535 39.0882 573.772 39.1247 575.945 38.7254C578.119 38.326 580.181 37.4996 582 36.2987C579.385 37.4244 576.5 37.8562 573.649 37.5484C570.798 37.2407 568.087 36.2048 565.803 34.5503V34.5503Z" fill="#2F2E41"/>
<path d="M577.5 73C568.387 73 561 67.4036 561 60.5C561 53.5964 568.387 48 577.5 48C586.613 48 594 53.5964 594 60.5C594 67.4036 586.613 73 577.5 73Z" fill="#2F2E41"/>
<path opacity="0.1" d="M578 225.487C576.858 225.89 575.783 226.397 574.798 227C574.549 223.547 573.112 202.668 574.835 203.004L578 225.487Z" fill="black"/>
<path d="M714.5 103C684.4 103 660 79.9427 660 51.5C660 23.0573 684.4 0 714.5 0C744.6 0 769 23.0573 769 51.5C769 79.9427 744.6 103 714.5 103Z" fill="#FF0A43"/>
<path d="M663.819 93.8217C663.375 92.9234 664.823 91.4062 667.054 90.4332C669.285 89.4601 671.453 89.3996 671.896 90.298C672.34 91.1963 670.892 92.7134 668.661 93.6865C666.43 94.6596 664.262 94.7201 663.819 93.8217Z" fill="#FBBEBE"/>
</g>
<defs>
<clipPath id="clip0">
<rect width="769" height="584" fill="white"/>
</clipPath>
</defs>
</svg>
